<svg width="200" height="60" viewBox="0 0 200 60" xmlns="http://www.w3.org/2000/svg">
  <defs>
    <linearGradient id="gradient1" x1="0%" y1="0%" x2="100%" y2="0%">
      <stop offset="0%" style="stop-color:#0080C8;stop-opacity:1" />
      <stop offset="50%" style="stop-color:#0096D6;stop-opacity:1" />
      <stop offset="100%" style="stop-color:#00BFAE;stop-opacity:1" />
    </linearGradient>
  </defs>
  
  <!-- T -->
  <path d="M 5 10 L 35 10 L 35 18 L 24 18 L 24 50 L 16 50 L 16 18 L 5 18 Z" fill="url(#gradient1)"/>
  
  <!-- I -->
  <rect x="40" y="10" width="8" height="40" fill="url(#gradient1)"/>
  
  <!-- B -->
  <path d="M 52 10 L 70 10 Q 80 10 80 20 Q 80 25 75 27.5 Q 82 30 82 37.5 Q 82 50 70 50 L 52 50 Z M 60 18 L 60 25 L 68 25 Q 72 25 72 21.5 Q 72 18 68 18 Z M 60 33 L 60 42 L 68 42 Q 72 42 72 37.5 Q 72 33 68 33 Z" fill="url(#gradient1)"/>
  
  <!-- Phone Icon -->
  <rect x="90" y="8" width="28" height="44" rx="4" ry="4" fill="#0096D6" stroke="#ffffff" stroke-width="2"/>
  <circle cx="104" cy="28" r="8" fill="#ffffff"/>
  <path d="M 104 23 Q 107 23 107 26 L 107 30 Q 107 33 104 33 Q 101 33 101 30 L 101 26 Q 101 23 104 23 Z" fill="#0096D6"/>
  <path d="M 98 30 L 102 34 L 106 30 L 110 34" stroke="#0096D6" stroke-width="1.5" fill="none"/>
  <circle cx="104" cy="47" r="2" fill="#ffffff"/>
  
  <!-- K -->
  <path d="M 125 10 L 133 10 L 133 26 L 145 10 L 155 10 L 141 28 L 156 50 L 146 50 L 133 33 L 133 50 L 125 50 Z" fill="url(#gradient1)"/>
</svg>
